<svg xmlns="http://www.w3.org/2000/svg" viewBox="0 0 1024 1008">
  <rect width="1024" height="1008" fill="#166534" rx="128"/>

  <path fill="#bbf7d0" fill-rule="evenodd" 
    d="M582.016846,424.533478 
    C579.418274,423.416809 576.860718,422.190247 574.214600,421.200806 
    C551.521973,412.715424 528.079773,409.792114 504.023621,412.299225 
    C472.890900,415.543854 445.244720,427.190002 422.707031,449.039490 
    C391.659851,479.138611 375.510315,516.895935 370.456238,559.261292 
    C366.770935,590.153137 370.522339,620.537354 383.446716,649.171448 
    C403.874451,694.429504 435.530090,726.926758 486.085175,737.082092 
    C490.799713,738.029053 492.321075,740.077820 492.274384,744.770996 
    C492.062225,766.101562 492.332458,787.437439 492.066437,808.766846 
    C491.933777,819.403809 491.547699,830.101868 489.424896,840.569580 
    C486.169312,856.623108 475.793610,865.335449 459.483551,866.241516 
    C453.999084,866.546143 448.515686,867.177124 443.034546,867.147705 
    C437.666687,867.118958 438.562653,870.645142 438.348450,873.947815 
    C438.098602,877.799927 439.903564,878.750122 443.426666,878.744812 
    C492.091675,878.671021 540.756836,878.655884 589.421753,878.755615 
    C593.520935,878.763977 594.649048,876.906616 594.655151,873.324463 
    C594.661255,869.761230 594.059204,867.133423 589.518005,867.178406 
    C585.877686,867.214539 582.221375,866.647705 578.588074,866.214966 
    C560.611389,864.073242 551.113892,854.729980 548.553223,836.839233 
    C547.746887,831.205261 547.704102,825.544006 547.699951,819.880371 
    C547.681335,794.547852 547.698120,769.215332 547.706177,743.882812 
    C547.708496,736.593567 547.725952,736.637634 554.996033,734.779785 
    C588.778381,726.147095 615.391907,707.031860 634.693115,678.305664 
    C651.318359,653.562134 661.862061,626.237305 666.315491,596.546448 
    C669.340515,576.379272 668.869812,556.337646 665.209473,536.481323 
    C660.489624,510.877747 650.070068,487.573212 633.880554,467.021881 
    C619.887451,449.258667 603.544800,434.320312 582.016846,424.533478 
    z
    M606.217773,584.013000 
    C606.736694,607.360352 606.259888,630.140381 600.893433,652.521057 
    C596.931030,669.046387 591.093567,684.729187 579.160522,697.372253 
    C567.351013,709.884338 552.604736,715.632019 535.529907,716.505493 
    C514.788269,717.566650 496.431732,712.282715 480.951843,698.004395 
    C470.263916,688.146118 462.167328,676.438049 455.824371,663.466492 
    C442.587921,636.397583 435.443512,607.734924 432.467896,577.778076 
    C430.113342,554.073914 430.649719,530.551453 434.814728,507.211639 
    C438.767853,485.059143 446.739807,464.487854 463.692505,448.688080 
    C476.812561,436.460297 492.831879,431.870911 510.517365,432.345673 
    C543.770752,433.238342 564.753113,452.455566 580.225708,479.461121 
    C595.835510,506.706207 602.530396,536.605774 605.247070,567.566895 
    C605.712463,572.870422 605.896484,578.198730 606.217773,584.013000 
    z" />
</svg>
